# https://github.com/mikedh/trimesh
v -2.00000000 -0.05000000 -2.00000000
v -2.00000000 -0.05000000 2.00000000
v -2.00000000 0.05000000 -2.00000000
v -2.00000000 0.05000000 2.00000000
v 2.00000000 -0.05000000 -2.00000000
v 2.00000000 -0.05000000 2.00000000
v 2.00000000 0.05000000 -2.00000000
v 2.00000000 0.05000000 2.00000000
v 4.00000000 -0.05000000 -1.00000000
v 4.00000000 -0.05000000 1.00000000
v 4.00000000 0.05000000 -1.00000000
v 4.00000000 0.05000000 1.00000000
v 7.00000000 -0.05000000 -1.00000000
v 7.00000000 -0.05000000 1.00000000
v 7.00000000 0.05000000 -1.00000000
v 7.00000000 0.05000000 1.00000000
v 8.00000000 -0.05000000 -2.00000000
v 8.00000000 -0.05000000 2.00000000
v 8.00000000 0.05000000 -2.00000000
v 8.00000000 0.05000000 2.00000000
v 12.00000000 -0.05000000 -2.00000000
v 12.00000000 -0.05000000 2.00000000
v 12.00000000 0.05000000 -2.00000000
v 12.00000000 0.05000000 2.00000000
v 4.00000000 -0.05000000 2.50000000
v 4.00000000 -0.05000000 5.50000000
v 4.00000000 0.05000000 2.50000000
v 4.00000000 0.05000000 5.50000000
v 7.00000000 -0.05000000 2.50000000
v 7.00000000 -0.05000000 5.50000000
v 7.00000000 0.05000000 2.50000000
v 7.00000000 0.05000000 5.50000000
v -2.00000000 0.00000000 2.40000000
v -2.00000000 0.00000000 2.60000000
v -2.00000000 2.50000000 2.40000000
v -2.00000000 2.50000000 2.60000000
v 2.00000000 0.00000000 2.40000000
v 2.00000000 0.00000000 2.60000000
v 2.00000000 2.50000000 2.40000000
v 2.00000000 2.50000000 2.60000000
v 8.00000000 0.00000000 2.40000000
v 8.00000000 0.00000000 2.60000000
v 8.00000000 2.50000000 2.40000000
v 8.00000000 2.50000000 2.60000000
v 12.00000000 0.00000000 2.40000000
v 12.00000000 0.00000000 2.60000000
v 12.00000000 2.50000000 2.40000000
v 12.00000000 2.50000000 2.60000000
v 2.90000000 0.00000000 -2.00000000
v 2.90000000 0.00000000 2.00000000
v 2.90000000 2.50000000 -2.00000000
v 2.90000000 2.50000000 2.00000000
v 3.10000000 0.00000000 -2.00000000
v 3.10000000 0.00000000 2.00000000
v 3.10000000 2.50000000 -2.00000000
v 3.10000000 2.50000000 2.00000000
f 2 4 1
f 5 2 1
f 1 4 3
f 3 5 1
f 2 8 4
f 6 2 5
f 6 8 2
f 4 8 3
f 7 5 3
f 3 8 7
f 7 6 5
f 8 6 7
f 10 12 9
f 13 10 9
f 9 12 11
f 11 13 9
f 10 16 12
f 14 10 13
f 14 16 10
f 12 16 11
f 15 13 11
f 11 16 15
f 15 14 13
f 16 14 15
f 18 20 17
f 21 18 17
f 17 20 19
f 19 21 17
f 18 24 20
f 22 18 21
f 22 24 18
f 20 24 19
f 23 21 19
f 19 24 23
f 23 22 21
f 24 22 23
f 26 28 25
f 29 26 25
f 25 28 27
f 27 29 25
f 26 32 28
f 30 26 29
f 30 32 26
f 28 32 27
f 31 29 27
f 27 32 31
f 31 30 29
f 32 30 31
f 34 36 33
f 37 34 33
f 33 36 35
f 35 37 33
f 34 40 36
f 38 34 37
f 38 40 34
f 36 40 35
f 39 37 35
f 35 40 39
f 39 38 37
f 40 38 39
f 42 44 41
f 45 42 41
f 41 44 43
f 43 45 41
f 42 48 44
f 46 42 45
f 46 48 42
f 44 48 43
f 47 45 43
f 43 48 47
f 47 46 45
f 48 46 47
f 50 52 49
f 53 50 49
f 49 52 51
f 51 53 49
f 50 56 52
f 54 50 53
f 54 56 50
f 52 56 51
f 55 53 51
f 51 56 55
f 55 54 53
f 56 54 55

