# https://github.com/mikedh/trimesh
v -2.14413204 0.00000000 -1.35618932
v -2.14413204 0.00000000 1.35618932
v -2.14413204 0.10000000 -1.35618932
v -2.14413204 0.10000000 1.35618932
v 2.14413204 0.00000000 -1.35618932
v 2.14413204 0.00000000 1.35618932
v 2.14413204 0.10000000 -1.35618932
v 2.14413204 0.10000000 1.35618932
v -2.14413204 0.00000000 1.25618932
v -2.14413204 0.00000000 1.45618932
v -2.14413204 2.50000000 1.25618932
v -2.14413204 2.50000000 1.45618932
v 2.14413204 0.00000000 1.25618932
v 2.14413204 0.00000000 1.45618932
v 2.14413204 2.50000000 1.25618932
v 2.14413204 2.50000000 1.45618932
v -2.14413204 0.00000000 -1.45618932
v -2.14413204 0.00000000 -1.25618932
v -2.14413204 2.50000000 -1.45618932
v -2.14413204 2.50000000 -1.25618932
v 2.14413204 0.00000000 -1.45618932
v 2.14413204 0.00000000 -1.25618932
v 2.14413204 2.50000000 -1.45618932
v 2.14413204 2.50000000 -1.25618932
v 2.04413204 0.00000000 -1.35618932
v 2.04413204 0.00000000 1.35618932
v 2.04413204 2.50000000 -1.35618932
v 2.04413204 2.50000000 1.35618932
v 2.24413204 0.00000000 -1.35618932
v 2.24413204 0.00000000 1.35618932
v 2.24413204 2.50000000 -1.35618932
v 2.24413204 2.50000000 1.35618932
v -2.24413204 0.00000000 -1.35618932
v -2.24413204 0.00000000 1.35618932
v -2.24413204 2.50000000 -1.35618932
v -2.24413204 2.50000000 1.35618932
v -2.04413204 0.00000000 -1.35618932
v -2.04413204 0.00000000 1.35618932
v -2.04413204 2.50000000 -1.35618932
v -2.04413204 2.50000000 1.35618932
v -0.40111446 0.00000000 2.23577932
v -0.40111446 0.00000000 3.73577932
v -0.40111446 0.10000000 2.23577932
v -0.40111446 0.10000000 3.73577932
v 0.00000000 0.00000000 2.23577932
v 0.00000000 0.00000000 3.73577932
v 0.00000000 0.10000000 2.23577932
v 0.00000000 0.10000000 3.73577932
v -2.47833683 0.00000000 3.81121513
v -2.47833683 0.00000000 8.13190213
v -2.47833683 0.10000000 3.81121513
v -2.47833683 0.10000000 8.13190213
v 1.67610791 0.00000000 3.81121513
v 1.67610791 0.00000000 8.13190213
v 1.67610791 0.10000000 3.81121513
v 1.67610791 0.10000000 8.13190213
v -2.47833683 0.00000000 8.03190213
v -2.47833683 0.00000000 8.23190213
v -2.47833683 2.50000000 8.03190213
v -2.47833683 2.50000000 8.23190213
v 1.67610791 0.00000000 8.03190213
v 1.67610791 0.00000000 8.23190213
v 1.67610791 2.50000000 8.03190213
v 1.67610791 2.50000000 8.23190213
v -2.47833683 0.00000000 3.71121513
v -2.47833683 0.00000000 3.91121513
v -2.47833683 2.50000000 3.71121513
v -2.47833683 2.50000000 3.91121513
v 1.67610791 0.00000000 3.71121513
v 1.67610791 0.00000000 3.91121513
v 1.67610791 2.50000000 3.71121513
v 1.67610791 2.50000000 3.91121513
v 1.57610791 0.00000000 3.81121513
v 1.57610791 0.00000000 8.13190213
v 1.57610791 2.50000000 3.81121513
v 1.57610791 2.50000000 8.13190213
v 1.77610791 0.00000000 3.81121513
v 1.77610791 0.00000000 8.13190213
v 1.77610791 2.50000000 3.81121513
v 1.77610791 2.50000000 8.13190213
v -2.57833683 0.00000000 3.81121513
v -2.57833683 0.00000000 8.13190213
v -2.57833683 2.50000000 3.81121513
v -2.57833683 2.50000000 8.13190213
v -2.37833683 0.00000000 3.81121513
v -2.37833683 0.00000000 8.13190213
v -2.37833683 2.50000000 3.81121513
v -2.37833683 2.50000000 8.13190213
v -1.23181359 0.00000000 7.95518727
v -1.23181359 0.00000000 9.45518727
v -1.23181359 0.10000000 7.95518727
v -1.23181359 0.10000000 9.45518727
v -0.40111446 0.00000000 7.95518727
v -0.40111446 0.00000000 9.45518727
v -0.40111446 0.10000000 7.95518727
v -0.40111446 0.10000000 9.45518727
v -2.70723182 0.00000000 9.29983778
v -2.70723182 0.00000000 13.57779402
v -2.70723182 0.10000000 9.29983778
v -2.70723182 0.10000000 13.57779402
v 0.24360464 0.00000000 9.29983778
v 0.24360464 0.00000000 13.57779402
v 0.24360464 0.10000000 9.29983778
v 0.24360464 0.10000000 13.57779402
v -2.70723182 0.00000000 13.47779402
v -2.70723182 0.00000000 13.67779402
v -2.70723182 2.50000000 13.47779402
v -2.70723182 2.50000000 13.67779402
v 0.24360464 0.00000000 13.47779402
v 0.24360464 0.00000000 13.67779402
v 0.24360464 2.50000000 13.47779402
v 0.24360464 2.50000000 13.67779402
v -2.70723182 0.00000000 9.19983778
v -2.70723182 0.00000000 9.39983778
v -2.70723182 2.50000000 9.19983778
v -2.70723182 2.50000000 9.39983778
v 0.24360464 0.00000000 9.19983778
v 0.24360464 0.00000000 9.39983778
v 0.24360464 2.50000000 9.19983778
v 0.24360464 2.50000000 9.39983778
v 0.14360464 0.00000000 9.29983778
v 0.14360464 0.00000000 13.57779402
v 0.14360464 2.50000000 9.29983778
v 0.14360464 2.50000000 13.57779402
v 0.34360464 0.00000000 9.29983778
v 0.34360464 0.00000000 13.57779402
v 0.34360464 2.50000000 9.29983778
v 0.34360464 2.50000000 13.57779402
v -2.80723182 0.00000000 9.29983778
v -2.80723182 0.00000000 13.57779402
v -2.80723182 2.50000000 9.29983778
v -2.80723182 2.50000000 13.57779402
v -2.60723182 0.00000000 9.29983778
v -2.60723182 0.00000000 13.57779402
v -2.60723182 2.50000000 9.29983778
v -2.60723182 2.50000000 13.57779402
v -4.68828342 0.00000000 11.43881590
v -4.68828342 0.00000000 12.15866616
v -4.68828342 0.10000000 11.43881590
v -4.68828342 0.10000000 12.15866616
v -3.18828342 0.00000000 11.43881590
v -3.18828342 0.00000000 12.15866616
v -3.18828342 0.10000000 11.43881590
v -3.18828342 0.10000000 12.15866616
v -8.59407190 0.00000000 10.38078064
v -8.59407190 0.00000000 13.93655168
v -8.59407190 0.10000000 10.38078064
v -8.59407190 0.10000000 13.93655168
v -4.69543460 0.00000000 10.38078064
v -4.69543460 0.00000000 13.93655168
v -4.69543460 0.10000000 10.38078064
v -4.69543460 0.10000000 13.93655168
v -8.59407190 0.00000000 13.83655168
v -8.59407190 0.00000000 14.03655168
v -8.59407190 2.50000000 13.83655168
v -8.59407190 2.50000000 14.03655168
v -4.69543460 0.00000000 13.83655168
v -4.69543460 0.00000000 14.03655168
v -4.69543460 2.50000000 13.83655168
v -4.69543460 2.50000000 14.03655168
v -8.59407190 0.00000000 10.28078064
v -8.59407190 0.00000000 10.48078064
v -8.59407190 2.50000000 10.28078064
v -8.59407190 2.50000000 10.48078064
v -4.69543460 0.00000000 10.28078064
v -4.69543460 0.00000000 10.48078064
v -4.69543460 2.50000000 10.28078064
v -4.69543460 2.50000000 10.48078064
v -4.79543460 0.00000000 10.38078064
v -4.79543460 0.00000000 13.93655168
v -4.79543460 2.50000000 10.38078064
v -4.79543460 2.50000000 13.93655168
v -4.59543460 0.00000000 10.38078064
v -4.59543460 0.00000000 13.93655168
v -4.59543460 2.50000000 10.38078064
v -4.59543460 2.50000000 13.93655168
v -8.69407190 0.00000000 10.38078064
v -8.69407190 0.00000000 13.93655168
v -8.69407190 2.50000000 10.38078064
v -8.69407190 2.50000000 13.93655168
v -8.49407190 0.00000000 10.38078064
v -8.49407190 0.00000000 13.93655168
v -8.49407190 2.50000000 10.38078064
v -8.49407190 2.50000000 13.93655168
f 2 4 1
f 5 2 1
f 1 4 3
f 3 5 1
f 2 8 4
f 6 2 5
f 6 8 2
f 4 8 3
f 7 5 3
f 3 8 7
f 7 6 5
f 8 6 7
f 10 12 9
f 13 10 9
f 9 12 11
f 11 13 9
f 10 16 12
f 14 10 13
f 14 16 10
f 12 16 11
f 15 13 11
f 11 16 15
f 15 14 13
f 16 14 15
f 18 20 17
f 21 18 17
f 17 20 19
f 19 21 17
f 18 24 20
f 22 18 21
f 22 24 18
f 20 24 19
f 23 21 19
f 19 24 23
f 23 22 21
f 24 22 23
f 26 28 25
f 29 26 25
f 25 28 27
f 27 29 25
f 26 32 28
f 30 26 29
f 30 32 26
f 28 32 27
f 31 29 27
f 27 32 31
f 31 30 29
f 32 30 31
f 34 36 33
f 37 34 33
f 33 36 35
f 35 37 33
f 34 40 36
f 38 34 37
f 38 40 34
f 36 40 35
f 39 37 35
f 35 40 39
f 39 38 37
f 40 38 39
f 42 44 41
f 45 42 41
f 41 44 43
f 43 45 41
f 42 48 44
f 46 42 45
f 46 48 42
f 44 48 43
f 47 45 43
f 43 48 47
f 47 46 45
f 48 46 47
f 50 52 49
f 53 50 49
f 49 52 51
f 51 53 49
f 50 56 52
f 54 50 53
f 54 56 50
f 52 56 51
f 55 53 51
f 51 56 55
f 55 54 53
f 56 54 55
f 58 60 57
f 61 58 57
f 57 60 59
f 59 61 57
f 58 64 60
f 62 58 61
f 62 64 58
f 60 64 59
f 63 61 59
f 59 64 63
f 63 62 61
f 64 62 63
f 66 68 65
f 69 66 65
f 65 68 67
f 67 69 65
f 66 72 68
f 70 66 69
f 70 72 66
f 68 72 67
f 71 69 67
f 67 72 71
f 71 70 69
f 72 70 71
f 74 76 73
f 77 74 73
f 73 76 75
f 75 77 73
f 74 80 76
f 78 74 77
f 78 80 74
f 76 80 75
f 79 77 75
f 75 80 79
f 79 78 77
f 80 78 79
f 82 84 81
f 85 82 81
f 81 84 83
f 83 85 81
f 82 88 84
f 86 82 85
f 86 88 82
f 84 88 83
f 87 85 83
f 83 88 87
f 87 86 85
f 88 86 87
f 90 92 89
f 93 90 89
f 89 92 91
f 91 93 89
f 90 96 92
f 94 90 93
f 94 96 90
f 92 96 91
f 95 93 91
f 91 96 95
f 95 94 93
f 96 94 95
f 98 100 97
f 101 98 97
f 97 100 99
f 99 101 97
f 98 104 100
f 102 98 101
f 102 104 98
f 100 104 99
f 103 101 99
f 99 104 103
f 103 102 101
f 104 102 103
f 106 108 105
f 109 106 105
f 105 108 107
f 107 109 105
f 106 112 108
f 110 106 109
f 110 112 106
f 108 112 107
f 111 109 107
f 107 112 111
f 111 110 109
f 112 110 111
f 114 116 113
f 117 114 113
f 113 116 115
f 115 117 113
f 114 120 116
f 118 114 117
f 118 120 114
f 116 120 115
f 119 117 115
f 115 120 119
f 119 118 117
f 120 118 119
f 122 124 121
f 125 122 121
f 121 124 123
f 123 125 121
f 122 128 124
f 126 122 125
f 126 128 122
f 124 128 123
f 127 125 123
f 123 128 127
f 127 126 125
f 128 126 127
f 130 132 129
f 133 130 129
f 129 132 131
f 131 133 129
f 130 136 132
f 134 130 133
f 134 136 130
f 132 136 131
f 135 133 131
f 131 136 135
f 135 134 133
f 136 134 135
f 138 140 137
f 141 138 137
f 137 140 139
f 139 141 137
f 138 144 140
f 142 138 141
f 142 144 138
f 140 144 139
f 143 141 139
f 139 144 143
f 143 142 141
f 144 142 143
f 146 148 145
f 149 146 145
f 145 148 147
f 147 149 145
f 146 152 148
f 150 146 149
f 150 152 146
f 148 152 147
f 151 149 147
f 147 152 151
f 151 150 149
f 152 150 151
f 154 156 153
f 157 154 153
f 153 156 155
f 155 157 153
f 154 160 156
f 158 154 157
f 158 160 154
f 156 160 155
f 159 157 155
f 155 160 159
f 159 158 157
f 160 158 159
f 162 164 161
f 165 162 161
f 161 164 163
f 163 165 161
f 162 168 164
f 166 162 165
f 166 168 162
f 164 168 163
f 167 165 163
f 163 168 167
f 167 166 165
f 168 166 167
f 170 172 169
f 173 170 169
f 169 172 171
f 171 173 169
f 170 176 172
f 174 170 173
f 174 176 170
f 172 176 171
f 175 173 171
f 171 176 175
f 175 174 173
f 176 174 175
f 178 180 177
f 181 178 177
f 177 180 179
f 179 181 177
f 178 184 180
f 182 178 181
f 182 184 178
f 180 184 179
f 183 181 179
f 179 184 183
f 183 182 181
f 184 182 183

