# https://github.com/mikedh/trimesh
v -1.56235404 0.00000000 -1.74113904
v -1.56235404 0.00000000 1.74113904
v -1.56235404 0.10000000 -1.74113904
v -1.56235404 0.10000000 1.74113904
v 1.56235404 0.00000000 -1.74113904
v 1.56235404 0.00000000 1.74113904
v 1.56235404 0.10000000 -1.74113904
v 1.56235404 0.10000000 1.74113904
v -1.56235404 0.00000000 1.64113904
v -1.56235404 0.00000000 1.84113904
v -1.56235404 2.50000000 1.64113904
v -1.56235404 2.50000000 1.84113904
v 1.56235404 0.00000000 1.64113904
v 1.56235404 0.00000000 1.84113904
v 1.56235404 2.50000000 1.64113904
v 1.56235404 2.50000000 1.84113904
v -1.56235404 0.00000000 -1.84113904
v -1.56235404 0.00000000 -1.64113904
v -1.56235404 2.50000000 -1.84113904
v -1.56235404 2.50000000 -1.64113904
v 1.56235404 0.00000000 -1.84113904
v 1.56235404 0.00000000 -1.64113904
v 1.56235404 2.50000000 -1.84113904
v 1.56235404 2.50000000 -1.64113904
v 1.46235404 0.00000000 -1.74113904
v 1.46235404 0.00000000 1.74113904
v 1.46235404 2.50000000 -1.74113904
v 1.46235404 2.50000000 1.74113904
v 1.66235404 0.00000000 -1.74113904
v 1.66235404 0.00000000 1.74113904
v 1.66235404 2.50000000 -1.74113904
v 1.66235404 2.50000000 1.74113904
v -1.66235404 0.00000000 -1.74113904
v -1.66235404 0.00000000 1.74113904
v -1.66235404 2.50000000 -1.74113904
v -1.66235404 2.50000000 1.74113904
v -1.46235404 0.00000000 -1.74113904
v -1.46235404 0.00000000 1.74113904
v -1.46235404 2.50000000 -1.74113904
v -1.46235404 2.50000000 1.74113904
v -3.37667276 0.00000000 -0.64341630
v -3.37667276 0.00000000 0.55658370
v -3.37667276 0.10000000 -0.64341630
v -3.37667276 0.10000000 0.55658370
v -1.87667276 0.00000000 -0.64341630
v -1.87667276 0.00000000 0.55658370
v -1.87667276 0.10000000 -0.64341630
v -1.87667276 0.10000000 0.55658370
v -7.71525171 0.00000000 -2.44920807
v -7.71525171 0.00000000 2.27554287
v -7.71525171 0.10000000 -2.44920807
v -7.71525171 0.10000000 2.27554287
v -2.79143932 0.00000000 -2.44920807
v -2.79143932 0.00000000 2.27554287
v -2.79143932 0.10000000 -2.44920807
v -2.79143932 0.10000000 2.27554287
v -7.71525171 0.00000000 2.17554287
v -7.71525171 0.00000000 2.37554287
v -7.71525171 2.50000000 2.17554287
v -7.71525171 2.50000000 2.37554287
v -2.79143932 0.00000000 2.17554287
v -2.79143932 0.00000000 2.37554287
v -2.79143932 2.50000000 2.17554287
v -2.79143932 2.50000000 2.37554287
v -7.71525171 0.00000000 -2.54920807
v -7.71525171 0.00000000 -2.34920807
v -7.71525171 2.50000000 -2.54920807
v -7.71525171 2.50000000 -2.34920807
v -2.79143932 0.00000000 -2.54920807
v -2.79143932 0.00000000 -2.34920807
v -2.79143932 2.50000000 -2.54920807
v -2.79143932 2.50000000 -2.34920807
v -2.89143932 0.00000000 -2.44920807
v -2.89143932 0.00000000 2.27554287
v -2.89143932 2.50000000 -2.44920807
v -2.89143932 2.50000000 2.27554287
v -2.69143932 0.00000000 -2.44920807
v -2.69143932 0.00000000 2.27554287
v -2.69143932 2.50000000 -2.44920807
v -2.69143932 2.50000000 2.27554287
v -7.81525171 0.00000000 -2.44920807
v -7.81525171 0.00000000 2.27554287
v -7.81525171 2.50000000 -2.44920807
v -7.81525171 2.50000000 2.27554287
v -7.61525171 0.00000000 -2.44920807
v -7.61525171 0.00000000 2.27554287
v -7.61525171 2.50000000 -2.44920807
v -7.61525171 2.50000000 2.27554287
v -9.11772981 0.00000000 -0.69037346
v -9.11772981 0.00000000 0.50962654
v -9.11772981 0.10000000 -0.69037346
v -9.11772981 0.10000000 0.50962654
v -7.61772981 0.00000000 -0.69037346
v -7.61772981 0.00000000 0.50962654
v -7.61772981 0.10000000 -0.69037346
v -7.61772981 0.10000000 0.50962654
v -13.69854398 0.00000000 -2.45090800
v -13.69854398 0.00000000 2.26307936
v -13.69854398 0.10000000 -2.45090800
v -13.69854398 0.10000000 2.26307936
v -9.26568424 0.00000000 -2.45090800
v -9.26568424 0.00000000 2.26307936
v -9.26568424 0.10000000 -2.45090800
v -9.26568424 0.10000000 2.26307936
v -13.69854398 0.00000000 2.16307936
v -13.69854398 0.00000000 2.36307936
v -13.69854398 2.50000000 2.16307936
v -13.69854398 2.50000000 2.36307936
v -9.26568424 0.00000000 2.16307936
v -9.26568424 0.00000000 2.36307936
v -9.26568424 2.50000000 2.16307936
v -9.26568424 2.50000000 2.36307936
v -13.69854398 0.00000000 -2.55090800
v -13.69854398 0.00000000 -2.35090800
v -13.69854398 2.50000000 -2.55090800
v -13.69854398 2.50000000 -2.35090800
v -9.26568424 0.00000000 -2.55090800
v -9.26568424 0.00000000 -2.35090800
v -9.26568424 2.50000000 -2.55090800
v -9.26568424 2.50000000 -2.35090800
v -9.36568424 0.00000000 -2.45090800
v -9.36568424 0.00000000 2.26307936
v -9.36568424 2.50000000 -2.45090800
v -9.36568424 2.50000000 2.26307936
v -9.16568424 0.00000000 -2.45090800
v -9.16568424 0.00000000 2.26307936
v -9.16568424 2.50000000 -2.45090800
v -9.16568424 2.50000000 2.26307936
v -13.79854398 0.00000000 -2.45090800
v -13.79854398 0.00000000 2.26307936
v -13.79854398 2.50000000 -2.45090800
v -13.79854398 2.50000000 2.26307936
v -13.59854398 0.00000000 -2.45090800
v -13.59854398 0.00000000 2.26307936
v -13.59854398 2.50000000 -2.45090800
v -13.59854398 2.50000000 2.26307936
v -5.77337857 0.00000000 -3.43754150
v -5.77337857 0.00000000 -1.93754150
v -5.77337857 0.10000000 -3.43754150
v -5.77337857 0.10000000 -1.93754150
v -4.57337857 0.00000000 -3.43754150
v -4.57337857 0.00000000 -1.93754150
v -4.57337857 0.10000000 -3.43754150
v -4.57337857 0.10000000 -1.93754150
v -7.47664697 0.00000000 -6.61005632
v -7.47664697 0.00000000 -3.96644447
v -7.47664697 0.10000000 -6.61005632
v -7.47664697 0.10000000 -3.96644447
v -2.71017628 0.00000000 -6.61005632
v -2.71017628 0.00000000 -3.96644447
v -2.71017628 0.10000000 -6.61005632
v -2.71017628 0.10000000 -3.96644447
v -7.47664697 0.00000000 -4.06644447
v -7.47664697 0.00000000 -3.86644447
v -7.47664697 2.50000000 -4.06644447
v -7.47664697 2.50000000 -3.86644447
v -2.71017628 0.00000000 -4.06644447
v -2.71017628 0.00000000 -3.86644447
v -2.71017628 2.50000000 -4.06644447
v -2.71017628 2.50000000 -3.86644447
v -7.47664697 0.00000000 -6.71005632
v -7.47664697 0.00000000 -6.51005632
v -7.47664697 2.50000000 -6.71005632
v -7.47664697 2.50000000 -6.51005632
v -2.71017628 0.00000000 -6.71005632
v -2.71017628 0.00000000 -6.51005632
v -2.71017628 2.50000000 -6.71005632
v -2.71017628 2.50000000 -6.51005632
v -2.81017628 0.00000000 -6.61005632
v -2.81017628 0.00000000 -3.96644447
v -2.81017628 2.50000000 -6.61005632
v -2.81017628 2.50000000 -3.96644447
v -2.61017628 0.00000000 -6.61005632
v -2.61017628 0.00000000 -3.96644447
v -2.61017628 2.50000000 -6.61005632
v -2.61017628 2.50000000 -3.96644447
v -7.57664697 0.00000000 -6.61005632
v -7.57664697 0.00000000 -3.96644447
v -7.57664697 2.50000000 -6.61005632
v -7.57664697 2.50000000 -3.96644447
v -7.37664697 0.00000000 -6.61005632
v -7.37664697 0.00000000 -3.96644447
v -7.37664697 2.50000000 -6.61005632
v -7.37664697 2.50000000 -3.96644447
v -11.84433548 0.00000000 -3.98959941
v -11.84433548 0.00000000 -2.48959941
v -11.84433548 0.10000000 -3.98959941
v -11.84433548 0.10000000 -2.48959941
v -11.48211411 0.00000000 -3.98959941
v -11.48211411 0.00000000 -2.48959941
v -11.48211411 0.10000000 -3.98959941
v -11.48211411 0.10000000 -2.48959941
v -13.84105120 0.00000000 -8.42274052
v -13.84105120 0.00000000 -4.34782848
v -13.84105120 0.10000000 -8.42274052
v -13.84105120 0.10000000 -4.34782848
v -9.84761976 0.00000000 -8.42274052
v -9.84761976 0.00000000 -4.34782848
v -9.84761976 0.10000000 -8.42274052
v -9.84761976 0.10000000 -4.34782848
v -13.84105120 0.00000000 -4.44782848
v -13.84105120 0.00000000 -4.24782848
v -13.84105120 2.50000000 -4.44782848
v -13.84105120 2.50000000 -4.24782848
v -9.84761976 0.00000000 -4.44782848
v -9.84761976 0.00000000 -4.24782848
v -9.84761976 2.50000000 -4.44782848
v -9.84761976 2.50000000 -4.24782848
v -13.84105120 0.00000000 -8.52274052
v -13.84105120 0.00000000 -8.32274052
v -13.84105120 2.50000000 -8.52274052
v -13.84105120 2.50000000 -8.32274052
v -9.84761976 0.00000000 -8.52274052
v -9.84761976 0.00000000 -8.32274052
v -9.84761976 2.50000000 -8.52274052
v -9.84761976 2.50000000 -8.32274052
v -9.94761976 0.00000000 -8.42274052
v -9.94761976 0.00000000 -4.34782848
v -9.94761976 2.50000000 -8.42274052
v -9.94761976 2.50000000 -4.34782848
v -9.74761976 0.00000000 -8.42274052
v -9.74761976 0.00000000 -4.34782848
v -9.74761976 2.50000000 -8.42274052
v -9.74761976 2.50000000 -4.34782848
v -13.94105120 0.00000000 -8.42274052
v -13.94105120 0.00000000 -4.34782848
v -13.94105120 2.50000000 -8.42274052
v -13.94105120 2.50000000 -4.34782848
v -13.74105120 0.00000000 -8.42274052
v -13.74105120 0.00000000 -4.34782848
v -13.74105120 2.50000000 -8.42274052
v -13.74105120 2.50000000 -4.34782848
v -8.53120912 0.00000000 -0.76736628
v -8.53120912 0.00000000 -0.08683260
v -8.53120912 0.10000000 -0.76736628
v -8.53120912 0.10000000 -0.08683260
v -7.03120912 0.00000000 -0.76736628
v -7.03120912 0.00000000 -0.08683260
v -7.03120912 0.10000000 -0.76736628
v -7.03120912 0.10000000 -0.08683260
v -11.56683710 0.00000000 -3.11304281
v -11.56683710 0.00000000 1.57831024
v -11.56683710 0.10000000 -3.11304281
v -11.56683710 0.10000000 1.57831024
v -9.05130836 0.00000000 -3.11304281
v -9.05130836 0.00000000 1.57831024
v -9.05130836 0.10000000 -3.11304281
v -9.05130836 0.10000000 1.57831024
v -11.56683710 0.00000000 1.47831024
v -11.56683710 0.00000000 1.67831024
v -11.56683710 2.50000000 1.47831024
v -11.56683710 2.50000000 1.67831024
v -9.05130836 0.00000000 1.47831024
v -9.05130836 0.00000000 1.67831024
v -9.05130836 2.50000000 1.47831024
v -9.05130836 2.50000000 1.67831024
v -11.56683710 0.00000000 -3.21304281
v -11.56683710 0.00000000 -3.01304281
v -11.56683710 2.50000000 -3.21304281
v -11.56683710 2.50000000 -3.01304281
v -9.05130836 0.00000000 -3.21304281
v -9.05130836 0.00000000 -3.01304281
v -9.05130836 2.50000000 -3.21304281
v -9.05130836 2.50000000 -3.01304281
v -9.15130836 0.00000000 -3.11304281
v -9.15130836 0.00000000 1.57831024
v -9.15130836 2.50000000 -3.11304281
v -9.15130836 2.50000000 1.57831024
v -8.95130836 0.00000000 -3.11304281
v -8.95130836 0.00000000 1.57831024
v -8.95130836 2.50000000 -3.11304281
v -8.95130836 2.50000000 1.57831024
v -11.66683710 0.00000000 -3.11304281
v -11.66683710 0.00000000 1.57831024
v -11.66683710 2.50000000 -3.11304281
v -11.66683710 2.50000000 1.57831024
v -11.46683710 0.00000000 -3.11304281
v -11.46683710 0.00000000 1.57831024
v -11.46683710 2.50000000 -3.11304281
v -11.46683710 2.50000000 1.57831024
f 2 4 1
f 5 2 1
f 1 4 3
f 3 5 1
f 2 8 4
f 6 2 5
f 6 8 2
f 4 8 3
f 7 5 3
f 3 8 7
f 7 6 5
f 8 6 7
f 10 12 9
f 13 10 9
f 9 12 11
f 11 13 9
f 10 16 12
f 14 10 13
f 14 16 10
f 12 16 11
f 15 13 11
f 11 16 15
f 15 14 13
f 16 14 15
f 18 20 17
f 21 18 17
f 17 20 19
f 19 21 17
f 18 24 20
f 22 18 21
f 22 24 18
f 20 24 19
f 23 21 19
f 19 24 23
f 23 22 21
f 24 22 23
f 26 28 25
f 29 26 25
f 25 28 27
f 27 29 25
f 26 32 28
f 30 26 29
f 30 32 26
f 28 32 27
f 31 29 27
f 27 32 31
f 31 30 29
f 32 30 31
f 34 36 33
f 37 34 33
f 33 36 35
f 35 37 33
f 34 40 36
f 38 34 37
f 38 40 34
f 36 40 35
f 39 37 35
f 35 40 39
f 39 38 37
f 40 38 39
f 42 44 41
f 45 42 41
f 41 44 43
f 43 45 41
f 42 48 44
f 46 42 45
f 46 48 42
f 44 48 43
f 47 45 43
f 43 48 47
f 47 46 45
f 48 46 47
f 50 52 49
f 53 50 49
f 49 52 51
f 51 53 49
f 50 56 52
f 54 50 53
f 54 56 50
f 52 56 51
f 55 53 51
f 51 56 55
f 55 54 53
f 56 54 55
f 58 60 57
f 61 58 57
f 57 60 59
f 59 61 57
f 58 64 60
f 62 58 61
f 62 64 58
f 60 64 59
f 63 61 59
f 59 64 63
f 63 62 61
f 64 62 63
f 66 68 65
f 69 66 65
f 65 68 67
f 67 69 65
f 66 72 68
f 70 66 69
f 70 72 66
f 68 72 67
f 71 69 67
f 67 72 71
f 71 70 69
f 72 70 71
f 74 76 73
f 77 74 73
f 73 76 75
f 75 77 73
f 74 80 76
f 78 74 77
f 78 80 74
f 76 80 75
f 79 77 75
f 75 80 79
f 79 78 77
f 80 78 79
f 82 84 81
f 85 82 81
f 81 84 83
f 83 85 81
f 82 88 84
f 86 82 85
f 86 88 82
f 84 88 83
f 87 85 83
f 83 88 87
f 87 86 85
f 88 86 87
f 90 92 89
f 93 90 89
f 89 92 91
f 91 93 89
f 90 96 92
f 94 90 93
f 94 96 90
f 92 96 91
f 95 93 91
f 91 96 95
f 95 94 93
f 96 94 95
f 98 100 97
f 101 98 97
f 97 100 99
f 99 101 97
f 98 104 100
f 102 98 101
f 102 104 98
f 100 104 99
f 103 101 99
f 99 104 103
f 103 102 101
f 104 102 103
f 106 108 105
f 109 106 105
f 105 108 107
f 107 109 105
f 106 112 108
f 110 106 109
f 110 112 106
f 108 112 107
f 111 109 107
f 107 112 111
f 111 110 109
f 112 110 111
f 114 116 113
f 117 114 113
f 113 116 115
f 115 117 113
f 114 120 116
f 118 114 117
f 118 120 114
f 116 120 115
f 119 117 115
f 115 120 119
f 119 118 117
f 120 118 119
f 122 124 121
f 125 122 121
f 121 124 123
f 123 125 121
f 122 128 124
f 126 122 125
f 126 128 122
f 124 128 123
f 127 125 123
f 123 128 127
f 127 126 125
f 128 126 127
f 130 132 129
f 133 130 129
f 129 132 131
f 131 133 129
f 130 136 132
f 134 130 133
f 134 136 130
f 132 136 131
f 135 133 131
f 131 136 135
f 135 134 133
f 136 134 135
f 138 140 137
f 141 138 137
f 137 140 139
f 139 141 137
f 138 144 140
f 142 138 141
f 142 144 138
f 140 144 139
f 143 141 139
f 139 144 143
f 143 142 141
f 144 142 143
f 146 148 145
f 149 146 145
f 145 148 147
f 147 149 145
f 146 152 148
f 150 146 149
f 150 152 146
f 148 152 147
f 151 149 147
f 147 152 151
f 151 150 149
f 152 150 151
f 154 156 153
f 157 154 153
f 153 156 155
f 155 157 153
f 154 160 156
f 158 154 157
f 158 160 154
f 156 160 155
f 159 157 155
f 155 160 159
f 159 158 157
f 160 158 159
f 162 164 161
f 165 162 161
f 161 164 163
f 163 165 161
f 162 168 164
f 166 162 165
f 166 168 162
f 164 168 163
f 167 165 163
f 163 168 167
f 167 166 165
f 168 166 167
f 170 172 169
f 173 170 169
f 169 172 171
f 171 173 169
f 170 176 172
f 174 170 173
f 174 176 170
f 172 176 171
f 175 173 171
f 171 176 175
f 175 174 173
f 176 174 175
f 178 180 177
f 181 178 177
f 177 180 179
f 179 181 177
f 178 184 180
f 182 178 181
f 182 184 178
f 180 184 179
f 183 181 179
f 179 184 183
f 183 182 181
f 184 182 183
f 186 188 185
f 189 186 185
f 185 188 187
f 187 189 185
f 186 192 188
f 190 186 189
f 190 192 186
f 188 192 187
f 191 189 187
f 187 192 191
f 191 190 189
f 192 190 191
f 194 196 193
f 197 194 193
f 193 196 195
f 195 197 193
f 194 200 196
f 198 194 197
f 198 200 194
f 196 200 195
f 199 197 195
f 195 200 199
f 199 198 197
f 200 198 199
f 202 204 201
f 205 202 201
f 201 204 203
f 203 205 201
f 202 208 204
f 206 202 205
f 206 208 202
f 204 208 203
f 207 205 203
f 203 208 207
f 207 206 205
f 208 206 207
f 210 212 209
f 213 210 209
f 209 212 211
f 211 213 209
f 210 216 212
f 214 210 213
f 214 216 210
f 212 216 211
f 215 213 211
f 211 216 215
f 215 214 213
f 216 214 215
f 218 220 217
f 221 218 217
f 217 220 219
f 219 221 217
f 218 224 220
f 222 218 221
f 222 224 218
f 220 224 219
f 223 221 219
f 219 224 223
f 223 222 221
f 224 222 223
f 226 228 225
f 229 226 225
f 225 228 227
f 227 229 225
f 226 232 228
f 230 226 229
f 230 232 226
f 228 232 227
f 231 229 227
f 227 232 231
f 231 230 229
f 232 230 231
f 234 236 233
f 237 234 233
f 233 236 235
f 235 237 233
f 234 240 236
f 238 234 237
f 238 240 234
f 236 240 235
f 239 237 235
f 235 240 239
f 239 238 237
f 240 238 239
f 242 244 241
f 245 242 241
f 241 244 243
f 243 245 241
f 242 248 244
f 246 242 245
f 246 248 242
f 244 248 243
f 247 245 243
f 243 248 247
f 247 246 245
f 248 246 247
f 250 252 249
f 253 250 249
f 249 252 251
f 251 253 249
f 250 256 252
f 254 250 253
f 254 256 250
f 252 256 251
f 255 253 251
f 251 256 255
f 255 254 253
f 256 254 255
f 258 260 257
f 261 258 257
f 257 260 259
f 259 261 257
f 258 264 260
f 262 258 261
f 262 264 258
f 260 264 259
f 263 261 259
f 259 264 263
f 263 262 261
f 264 262 263
f 266 268 265
f 269 266 265
f 265 268 267
f 267 269 265
f 266 272 268
f 270 266 269
f 270 272 266
f 268 272 267
f 271 269 267
f 267 272 271
f 271 270 269
f 272 270 271
f 274 276 273
f 277 274 273
f 273 276 275
f 275 277 273
f 274 280 276
f 278 274 277
f 278 280 274
f 276 280 275
f 279 277 275
f 275 280 279
f 279 278 277
f 280 278 279

